# xmcd CD database file
#
# Track frame offsets:
#	150
#	24903
#	54338
#	80408
#	111173
#	142852
#	165735
#	185657
#	206807
#	230106
#	261862
#	280919
#	296198
#
# Disc length: 4191 seconds
#
# Revision: 0
# Processed by: cddbd v1.5.2PL0 Copyright (c) Steve Scherf et al.
# Submitted via: CDex 1.70beta2
#
DISCID=c0105d0d
DTITLE=Phil Woods - Anything Goes
DYEAR=1960
DGENRE=Jazz
TTITLE0=Please Say Yes
TTITLE1=Maud's Mood
TTITLE2=Hard Sock Dance
TTITLE3=Alison
TTITLE4=Tipsy
TTITLE5=You  Took Advantage Of Me
TTITLE6=Star Eyes
TTITLE7=Anything Goes
TTITLE8=Don't Blame Me
TTITLE9=Caravan
TTITLE10=Have You Met Miss Jones
TTITLE11=Love Song
TTITLE12=Sing Hallelujah
EXTD=YEAR: 1960
EXTT0=
EXTT1=
EXTT2=
EXTT3=
EXTT4=
EXTT5=
EXTT6=
EXTT7=
EXTT8=
EXTT9=
EXTT10=
EXTT11=
EXTT12=
PLAYORDER=
